<svg xmlns="http://www.w3.org/2000/svg" viewBox="0 0 960 760" fill="none">
  <rect width="960" height="760" rx="36" fill="#071433"/>
  <rect x="48" y="48" width="864" height="664" rx="28" fill="#0d1f4f"/>
  <rect x="84" y="84" width="792" height="70" rx="18" fill="#12306f"/>
  <circle cx="124" cy="119" r="10" fill="#7cc2ff"/>
  <circle cx="154" cy="119" r="10" fill="#9dd6ff"/>
  <circle cx="184" cy="119" r="10" fill="#d4edff"/>
  <rect x="84" y="186" width="260" height="272" rx="24" fill="#0f2a63" stroke="#2a4ea0"/>
  <rect x="370" y="186" width="506" height="146" rx="24" fill="#0f2a63" stroke="#2a4ea0"/>
  <rect x="370" y="356" width="240" height="202" rx="24" fill="#0f2a63" stroke="#2a4ea0"/>
  <rect x="636" y="356" width="240" height="202" rx="24" fill="#0f2a63" stroke="#2a4ea0"/>
  <rect x="108" y="216" width="78" height="14" rx="7" fill="#7cc2ff"/>
  <rect x="108" y="250" width="180" height="20" rx="10" fill="#d4edff" fill-opacity="0.92"/>
  <rect x="108" y="286" width="140" height="20" rx="10" fill="#d4edff" fill-opacity="0.8"/>
  <rect x="108" y="322" width="200" height="20" rx="10" fill="#d4edff" fill-opacity="0.7"/>
  <rect x="108" y="392" width="180" height="34" rx="17" fill="#7cc2ff"/>
  <path d="M430 264L490 224L556 248L616 198L682 216L760 178L826 204" stroke="#7cc2ff" stroke-width="10" stroke-linecap="round" stroke-linejoin="round"/>
  <path d="M430 265L490 225L556 249L616 199L682 217L760 179L826 205" stroke="#d4edff" stroke-width="4" stroke-linecap="round" stroke-linejoin="round"/>
  <rect x="398" y="392" width="68" height="68" rx="18" fill="#7cc2ff"/>
  <rect x="484" y="392" width="68" height="68" rx="18" fill="#9dd6ff"/>
  <rect x="570" y="392" width="68" height="68" rx="18" fill="#d4edff"/>
  <rect x="656" y="392" width="188" height="20" rx="10" fill="#d4edff" fill-opacity="0.9"/>
  <rect x="656" y="428" width="132" height="18" rx="9" fill="#d4edff" fill-opacity="0.72"/>
  <rect x="656" y="466" width="160" height="18" rx="9" fill="#d4edff" fill-opacity="0.62"/>
  <circle cx="732" cy="572" r="92" fill="#7cc2ff" fill-opacity="0.22"/>
  <circle cx="732" cy="572" r="56" fill="#d4edff" fill-opacity="0.24"/>
</svg>